<svg width="50" height="60" viewBox="0 0 50 60" fill="none" xmlns="http://www.w3.org/2000/svg">
<path d="M0 20C0 8.9543 8.95431 0 20 0H40C45.5228 0 50 4.47715 50 10V40C50 51.0457 41.0457 60 30 60H10C4.47715 60 0 55.5228 0 50V20Z" fill="#FFC2F9"/>
<mask id="mask0_72_489" style="mask-type:alpha" maskUnits="userSpaceOnUse" x="0" y="0" width="50" height="60">
<path d="M0 20C0 8.9543 8.95431 0 20 0H40C45.5228 0 50 4.47715 50 10V40C50 51.0457 41.0457 60 30 60H10C4.47715 60 0 55.5228 0 50V20Z" fill="#C4C4C4"/>
</mask>
<g mask="url(#mask0_72_489)">
<g clip-path="url(#clip0_72_489)">
<path d="M7.31686 48.7958C7.81056 44.5954 11.5424 41.4189 15.9835 41.4189H28.5565C32.9977 41.4189 36.7295 44.5954 37.2232 48.7958L38.5401 59.9999H6L7.31686 48.7958Z" fill="#DA75FD"/>
<mask id="mask1_72_489" style="mask-type:alpha" maskUnits="userSpaceOnUse" x="6" y="41" width="33" height="19">
<path d="M7.31686 48.7958C7.81056 44.5954 11.5424 41.4189 15.9835 41.4189H28.5565C32.9977 41.4189 36.7295 44.5954 37.2232 48.7958L38.5401 59.9999H6L7.31686 48.7958Z" fill="#00D355"/>
</mask>
<g mask="url(#mask1_72_489)">
<path d="M8.09805 48.7958C8.59175 44.5954 12.3235 41.4189 16.7647 41.4189H29.3377C33.7789 41.4189 37.5107 44.5954 38.0044 48.7958L39.3212 59.9999H6.78119L8.09805 48.7958Z" fill="#A10CD6"/>
<path d="M8.87887 48.7958C9.37257 44.5954 13.1044 41.4189 17.5456 41.4189H30.1185C34.5597 41.4189 38.2915 44.5954 38.7852 48.7958L40.1021 59.9999H7.56201L8.87887 48.7958Z" fill="url(#paint0_linear_72_489)"/>
</g>
<path fill-rule="evenodd" clip-rule="evenodd" d="M30.4701 52.5674C30.6857 52.5674 30.8605 52.7338 30.8605 52.939V59.9998C30.8605 60.205 30.6857 60.3714 30.4701 60.3714C30.2544 60.3714 30.0796 60.205 30.0796 59.9998V52.939C30.0796 52.7338 30.2544 52.5674 30.4701 52.5674Z" fill="url(#paint1_linear_72_489)"/>
<path fill-rule="evenodd" clip-rule="evenodd" d="M13.9777 52.217C14.1934 52.217 14.3682 52.3834 14.3682 52.5887V59.6494C14.3682 59.8547 14.1934 60.021 13.9777 60.021C13.762 60.021 13.5872 59.8547 13.5872 59.6494V52.5887C13.5872 52.3834 13.762 52.217 13.9777 52.217Z" fill="url(#paint2_linear_72_489)"/>
</g>
<path d="M36.1177 18.7624C38.5616 25.5017 53.0685 40.7905 38.3311 44.7577C24.4255 48.501 17.5569 35.1156 15.113 28.3763C12.6691 21.6369 12.2259 12.0768 21.5631 10.3103C24.6103 8.61701 33.5092 11.5692 36.1177 18.7624Z" fill="#5236FF"/>
<path d="M34.6157 22.8187C36.4808 27.962 45.7121 40.3808 34.6157 44.294C24.9838 47.6906 18.838 36.4137 18.3765 30.2242C16.5114 25.081 16.1989 17.7765 23.41 16.4005C25.7668 15.0979 32.625 17.3291 34.6157 22.8187Z" fill="#4021FE"/>
<path d="M31.6294 25.4084C31.6294 33.1528 28.3192 31.3865 21.7676 31.3865C13.478 35.4625 12.0487 29.7099 12.0487 24.4573C10.6195 19.1585 13.335 13.0444 21.7676 13.0444C34.9167 14.4031 32.9157 22.8269 31.6294 25.4084Z" fill="#5236FF"/>
<path d="M20.1963 34.6472H23.6265L24.5297 41.3249C24.7329 42.8273 23.5032 44.1579 21.9114 44.1579C20.3197 44.1579 19.09 42.8273 19.2932 41.3249L20.1963 34.6472Z" fill="#FBC6D7"/>
<mask id="mask2_72_489" style="mask-type:alpha" maskUnits="userSpaceOnUse" x="19" y="34" width="6" height="11">
<path d="M20.1955 34.6472H23.6257L24.5288 41.3249C24.732 42.8273 23.5023 44.1579 21.9106 44.1579C20.3188 44.1579 19.0891 42.8273 19.2923 41.3249L20.1955 34.6472Z" fill="#FF7CA6"/>
</mask>
<g mask="url(#mask2_72_489)">
<path d="M20.3382 34.6472H23.7684L24.1971 36.8211C23.0275 38.5484 21.4816 38.7232 19.1948 39.2667L20.3382 34.6472Z" fill="#FF7CA6"/>
</g>
<path d="M14.0346 26.3962C14.3941 27.3916 14.0347 28.4055 13.2319 28.6607C12.4291 28.9159 11.487 28.3158 11.1275 27.3204C10.7681 26.325 11.1275 25.3112 11.9302 25.056C12.733 24.8008 13.6752 25.4008 14.0346 26.3962Z" fill="#FBC6D7"/>
<path d="M13.7089 26.5122C13.9434 27.1613 13.6836 27.8304 13.1285 28.0068C12.5735 28.1832 11.9334 27.8 11.6989 27.151C11.4644 26.502 11.7243 25.8328 12.2793 25.6565C12.8344 25.4801 13.4744 25.8632 13.7089 26.5122Z" fill="#FF7CA6"/>
<path d="M29.992 26.9397C29.6325 27.9351 29.9919 28.9489 30.7947 29.2041C31.5975 29.4593 32.5396 28.8593 32.8991 27.8639C33.2585 26.8685 32.8992 25.8546 32.0964 25.5994C31.2936 25.3442 30.3514 25.9443 29.992 26.9397Z" fill="#FBC6D7"/>
<path d="M30.3177 27.0557C30.0832 27.7047 30.343 28.3739 30.8981 28.5502C31.4532 28.7266 32.0932 28.3435 32.3277 27.6945C32.5622 27.0454 32.3024 26.3763 31.7473 26.1999C31.1922 26.0235 30.5522 26.4067 30.3177 27.0557Z" fill="#FF7CA6"/>
<path d="M30.4862 27.5822C30.4862 32.8349 26.6468 37.093 21.9107 37.093C17.1746 37.093 13.3352 32.8349 13.3352 27.5822C13.3352 22.3296 17.1746 18.0715 21.9107 18.0715C26.6468 18.0715 30.4862 22.3296 30.4862 27.5822Z" fill="#FBC6D7"/>
<mask id="mask3_72_489" style="mask-type:alpha" maskUnits="userSpaceOnUse" x="13" y="18" width="18" height="20">
<path d="M30.4863 27.5822C30.4863 32.8349 26.647 37.093 21.9109 37.093C17.1748 37.093 13.3354 32.8349 13.3354 27.5822C13.3354 22.3296 17.1748 18.0715 21.9109 18.0715C26.647 18.0715 30.4863 22.3296 30.4863 27.5822Z" fill="#FBC6D7"/>
</mask>
<g mask="url(#mask3_72_489)">
<path d="M30.4704 31.7568C30.4704 32.9882 29.4214 33.9865 28.1275 33.9865C26.8336 33.9865 25.7846 32.9882 25.7846 31.7568C25.7846 30.5254 26.8336 29.5271 28.1275 29.5271C29.4214 29.5271 30.4704 30.5254 30.4704 31.7568Z" fill="#FF5E5E"/>
<path d="M18.3658 31.7568C18.3658 32.9882 17.3169 33.9865 16.0229 33.9865C14.729 33.9865 13.6801 32.9882 13.6801 31.7568C13.6801 30.5254 14.729 29.5271 16.0229 29.5271C17.3169 29.5271 18.3658 30.5254 18.3658 31.7568Z" fill="#FF5E5E"/>
</g>
<path fill-rule="evenodd" clip-rule="evenodd" d="M23.6655 33.8598C23.739 33.9773 23.6986 34.1294 23.575 34.1994C23.0058 34.5221 22.5208 34.722 22.0141 34.7296C21.503 34.7372 21.0145 34.549 20.4372 34.1948C20.3164 34.1206 20.2816 33.9673 20.3595 33.8523C20.4374 33.7373 20.5985 33.7042 20.7194 33.7783C21.2608 34.1106 21.6447 34.2395 22.0059 34.2341C22.3716 34.2287 22.7589 34.0853 23.3086 33.7737C23.4321 33.7037 23.5919 33.7422 23.6655 33.8598Z" fill="#FF7FA8"/>
<path d="M18.6258 27.5453C18.6258 28.161 18.3344 28.6601 17.975 28.6601C17.6156 28.6601 17.3242 28.161 17.3242 27.5453C17.3242 26.9296 17.6156 26.4304 17.975 26.4304C18.3344 26.4304 18.6258 26.9296 18.6258 27.5453Z" fill="#361AE7"/>
<path d="M26.4355 27.5453C26.4355 28.161 26.1441 28.6601 25.7847 28.6601C25.4253 28.6601 25.1339 28.161 25.1339 27.5453C25.1339 26.9296 25.4253 26.4304 25.7847 26.4304C26.1441 26.4304 26.4355 26.9296 26.4355 27.5453Z" fill="#361AE7"/>
<path fill-rule="evenodd" clip-rule="evenodd" d="M21.5542 26.864C21.698 26.864 21.8145 26.9749 21.8145 27.1118V30.5334L23.0064 30.3361C23.1481 30.3127 23.2829 30.403 23.3075 30.5378C23.3322 30.6726 23.2373 30.8008 23.0956 30.8243L21.5988 31.072C21.5231 31.0846 21.4454 31.0646 21.3866 31.0175C21.3278 30.9705 21.2939 30.9011 21.2939 30.8279V27.1118C21.2939 26.9749 21.4104 26.864 21.5542 26.864Z" fill="#FF7FA8"/>
<path d="M13.4191 22.0406C13.4191 21.2854 14.1248 20.7072 14.9115 20.8059C20.2808 21.4801 23.8751 21.4917 29.3686 20.8051C30.1552 20.7068 30.8605 21.2849 30.8605 22.0399V23.507C30.8605 24.1096 30.4031 24.626 29.7782 24.7231C23.7698 25.6559 20.0832 25.6951 14.4758 24.7375C13.8622 24.6328 13.4191 24.1212 13.4191 23.5279V22.0406Z" fill="white"/>
<mask id="mask4_72_489" style="mask-type:alpha" maskUnits="userSpaceOnUse" x="13" y="20" width="18" height="6">
<path d="M13.4191 22.0406C13.4191 21.2854 14.1248 20.7072 14.9115 20.8059C20.2808 21.4801 23.8751 21.4917 29.3686 20.8051C30.1552 20.7068 30.8605 21.2849 30.8605 22.0399V23.507C30.8605 24.1096 30.4031 24.626 29.7782 24.7231C23.7698 25.6559 20.0832 25.6951 14.4758 24.7375C13.8622 24.6328 13.4191 24.1212 13.4191 23.5279V22.0406Z" fill="white"/>
</mask>
<g mask="url(#mask4_72_489)">
<path d="M17.1751 27.64C16.3971 26.8233 17.0805 25.454 18.2362 25.3802C25.519 24.9155 30.9409 21.116 33.7756 20.7676C36.3942 20.4458 35.3383 23.1627 34.8367 24.2172C34.7099 24.4838 34.4713 24.6846 34.1853 24.7918C28.0023 27.1095 24.3217 27.8986 18.1414 28.0365C17.7742 28.0447 17.4217 27.899 17.1751 27.64Z" fill="#E9E9E9"/>
</g>
<path d="M13.7636 23.7779C14.0495 23.6421 15.6216 19.7019 20.4811 18.2074C22.3867 20.6983 26.9984 25.6529 30.1999 25.5442C31.2004 23.2797 31.8865 18.5063 26.6268 17.528C20.0523 16.3052 13.7636 17.2563 13.7636 20.5171V23.7779Z" fill="#5236FF"/>
</g>
<defs>
<linearGradient id="paint0_linear_72_489" x1="20.513" y1="64.2116" x2="25.4875" y2="41.312" gradientUnits="userSpaceOnUse">
<stop stop-color="#8300D3"/>
<stop offset="1" stop-color="#E43FFF"/>
</linearGradient>
<linearGradient id="paint1_linear_72_489" x1="30.4701" y1="59.9998" x2="30.4701" y2="52.939" gradientUnits="userSpaceOnUse">
<stop stop-color="#FF77FA"/>
<stop offset="1" stop-color="#FF77E9" stop-opacity="0"/>
</linearGradient>
<linearGradient id="paint2_linear_72_489" x1="13.9777" y1="59.6494" x2="13.9777" y2="52.5887" gradientUnits="userSpaceOnUse">
<stop stop-color="#FF77FA"/>
<stop offset="1" stop-color="#FF77E9" stop-opacity="0"/>
</linearGradient>
<clipPath id="clip0_72_489">
<rect width="32.5401" height="18.5809" fill="white" transform="translate(6 41.4189)"/>
</clipPath>
</defs>
</svg>
