<svg width="24" height="25" viewBox="0 0 24 25" fill="none" xmlns="http://www.w3.org/2000/svg">
<path fill-rule="evenodd" clip-rule="evenodd" d="M20 1.5C20.5523 1.5 21 1.94772 21 2.5V18.5H19H6.5C6.10218 18.5 5.72064 18.658 5.43934 18.9393L3 20V5C3 4.07174 3.36875 3.1815 4.02513 2.52513C4.6815 1.86875 5.57174 1.5 6.5 1.5H20ZM6.5 3.5C6.10218 3.5 5.72064 3.65804 5.43934 3.93934C5.15804 4.22064 5 4.60218 5 5V16.8377C5.46443 16.6174 5.97616 16.5 6.5 16.5H19V3.5H6.5Z" fill="#1657FF"/>
<path d="M5.43934 21.0607C5.15804 20.7794 5 20.3978 5 20C5 19.6022 5.15804 19.2206 5.43934 18.9393L3 20C3 20.9283 3.36875 21.8185 4.02513 22.4749C4.6815 23.1313 5.57174 23.5 6.5 23.5H20C20.5523 23.5 21 23.0523 21 22.5V18.5H19V21.5H6.5C6.10218 21.5 5.72064 21.342 5.43934 21.0607Z" fill="#FF16A2"/>
</svg>
