<svg width="24" height="25" viewBox="0 0 24 25" fill="none" xmlns="http://www.w3.org/2000/svg">
<path fill-rule="evenodd" clip-rule="evenodd" d="M7 2.5C6.20435 2.5 5.44129 2.81607 4.87868 3.37868C4.31607 3.94129 4 4.70435 4 5.5V21.5C4 21.8746 4.20935 22.2178 4.54242 22.3892C4.87549 22.5606 5.27642 22.5315 5.58124 22.3137L12 17.7289L18.4188 22.3137C18.7236 22.5315 19.1245 22.5606 19.4576 22.3892C19.7907 22.2178 20 21.8746 20 21.5V5.5C20 4.70435 19.6839 3.94129 19.1213 3.37868C18.5587 2.81607 17.7957 2.5 17 2.5H7ZM6.29289 4.79289C6.48043 4.60536 6.73478 4.5 7 4.5H17C17.2652 4.5 17.5196 4.60536 17.7071 4.79289C17.8946 4.98043 18 5.23478 18 5.5V19.5568L12.5812 15.6863C12.2335 15.4379 11.7665 15.4379 11.4188 15.6863L6 19.5568V5.5C6 5.23478 6.10536 4.98043 6.29289 4.79289Z" fill="#1657FF"/>
</svg>
