<svg width="24" height="24" viewBox="0 0 24 24" fill="none" xmlns="http://www.w3.org/2000/svg">
<path fill-rule="evenodd" clip-rule="evenodd" d="M12 3.5C10.067 3.5 8.5 5.067 8.5 7C8.5 8.933 10.067 10.5 12 10.5C13.933 10.5 15.5 8.933 15.5 7C15.5 5.067 13.933 3.5 12 3.5ZM7.5 7C7.5 4.51472 9.51472 2.5 12 2.5C14.4853 2.5 16.5 4.51472 16.5 7C16.5 9.48528 14.4853 11.5 12 11.5C9.51472 11.5 7.5 9.48528 7.5 7Z" fill="#FF16A2" stroke="#FF16A2" stroke-linecap="round" stroke-linejoin="round"/>
<path fill-rule="evenodd" clip-rule="evenodd" d="M9.12987 14.0709C10.0398 13.694 11.0151 13.5 12 13.5C12.9849 13.5 13.9602 13.694 14.8701 14.0709C15.7801 14.4478 16.6069 15.0003 17.3033 15.6967C17.9997 16.3931 18.5522 17.2199 18.9291 18.1299C19.306 19.0398 19.5 20.0151 19.5 21C19.5 21.2761 19.2761 21.5 19 21.5C18.7239 21.5 18.5 21.2761 18.5 21C18.5 20.1464 18.3319 19.3012 18.0052 18.5126C17.6786 17.7239 17.1998 17.0074 16.5962 16.4038C15.9926 15.8002 15.2761 15.3214 14.4874 14.9948C13.6988 14.6681 12.8536 14.5 12 14.5C11.1464 14.5 10.3012 14.6681 9.51256 14.9948C8.72394 15.3214 8.00739 15.8002 7.40381 16.4038C6.80022 17.0074 6.32144 17.7239 5.99478 18.5126C5.66813 19.3012 5.5 20.1464 5.5 21C5.5 21.2761 5.27614 21.5 5 21.5C4.72386 21.5 4.5 21.2761 4.5 21C4.5 20.0151 4.69399 19.0398 5.0709 18.1299C5.44781 17.2199 6.00026 16.3931 6.6967 15.6967C7.39314 15.0003 8.21993 14.4478 9.12987 14.0709Z" fill="#1657FF" stroke="#1657FF" stroke-linecap="round" stroke-linejoin="round"/>
</svg>
